<svg width="14" height="15" viewBox="0 0 14 15" fill="#fff" xmlns="http://www.w3.org/2000/svg">
<path d="M0.22754 2.31979C0.22754 1.87342 0.400923 1.44532 0.709547 1.12968C1.01817 0.814042 1.43675 0.636719 1.87321 0.636719H9.95198C10.3884 0.636719 10.807 0.814042 11.1156 1.12968C11.4243 1.44532 11.5977 1.87342 11.5977 2.31979V3.08973C12.1657 3.12854 12.6981 3.38671 13.087 3.81195C13.4759 4.23718 13.6922 4.79768 13.6921 5.37993V11.8062C13.6921 12.4149 13.4557 12.9987 13.0349 13.4291C12.614 13.8595 12.0432 14.1013 11.448 14.1013H2.47403C1.87886 14.1013 1.30807 13.8595 0.887216 13.4291C0.466365 12.9987 0.229934 12.4149 0.229934 11.8062V5.37993H0.22754V2.4728H0.234122C0.229688 2.42193 0.227491 2.37087 0.22754 2.31979ZM10.7 2.31979C10.7 1.8975 10.3649 1.55476 9.95198 1.55476H1.87321C1.67482 1.55476 1.48456 1.63536 1.34427 1.77883C1.20399 1.92231 1.12518 2.1169 1.12518 2.31979C1.12518 2.52269 1.20399 2.71728 1.34427 2.86076C1.48456 3.00423 1.67482 3.08483 1.87321 3.08483H10.7V2.31979ZM9.65277 8.59308C9.53373 8.59308 9.41957 8.64144 9.3354 8.72752C9.25123 8.81361 9.20394 8.93036 9.20394 9.0521C9.20394 9.17384 9.25123 9.29059 9.3354 9.37668C9.41957 9.46276 9.53373 9.51112 9.65277 9.51112H11.1488C11.2679 9.51112 11.382 9.46276 11.4662 9.37668C11.5504 9.29059 11.5977 9.17384 11.5977 9.0521C11.5977 8.93036 11.5504 8.81361 11.4662 8.72752C11.382 8.64144 11.2679 8.59308 11.1488 8.59308H9.65277Z" fill="white"/>
</svg>
